# xmcd CD database file
#
# Track frame offsets:
#	150
#	27490
#	92015
#	125447
#
# Disc length: 2375 seconds
#
# Revision: 0
# Processed by: cddbd v1.5.2PL0 Copyright (c) Steve Scherf et al.
# Submitted via: CDex 1.70beta2
#
DISCID=2c094504
DTITLE=Rosco Mitchel - New music for woodwinds and voice
DYEAR=1900
DGENRE=Jazz
TTITLE0=Marche
TTITLE1=Textures for trio
TTITLE2=Prelude
TTITLE3=Variations on sketches from bamboo, No 1&2
EXTD=
EXTT0=
EXTT1=
EXTT2=
EXTT3=
PLAYORDER=
